<?xml version="1.0" encoding="UTF-8" standalone="no"?>
<!DOCTYPE svg PUBLIC "-//W3C//DTD SVG 1.1//EN" "http://www.w3.org/Graphics/SVG/1.1/DTD/svg11.dtd">
<svg width="100%" height="100%" viewBox="0 0 552 337" version="1.1" xmlns="http://www.w3.org/2000/svg" xmlns:xlink="http://www.w3.org/1999/xlink" xml:space="preserve" xmlns:serif="http://www.serif.com/" style="fill-rule:evenodd;clip-rule:evenodd;stroke-linejoin:round;stroke-miterlimit:2;">
    <g transform="matrix(4.16667,0,0,4.16667,-1182.33,-1411.33)">
        <g transform="matrix(0.484586,0,0,0.484586,180.395,194.441)">
            <path d="M257.088,369.819L213.908,369.819L213.908,392.501L350,463.987L350,321.015L257.088,369.819Z" style="fill:rgb(4,70,109);fill-rule:nonzero;"/>
        </g>
        <g transform="matrix(0.484586,0,0,0.484586,180.395,194.441)">
            <path d="M486.092,369.819L442.911,369.819L350,321.015L350,463.987L486.092,392.501L486.092,369.819Z" style="fill:rgb(5,56,86);fill-rule:nonzero;"/>
        </g>
        <g transform="matrix(0.484586,0,0,0.484586,180.395,194.441)">
            <path d="M486.092,369.819L350,441.306L213.908,369.819L350,298.333L486.092,369.819Z" style="fill:rgb(12,84,130);fill-rule:nonzero;"/>
        </g>
    </g>
</svg>
