<?xml version="1.0" encoding="UTF-8" standalone="no"?>
<!DOCTYPE svg PUBLIC "-//W3C//DTD SVG 1.1//EN" "http://www.w3.org/Graphics/SVG/1.1/DTD/svg11.dtd">
<svg width="100%" height="100%" preserveAspectRatio="xMinYMin meet" viewBox="0 0 551 336" version="1.1" xmlns="http://www.w3.org/2000/svg" xmlns:xlink="http://www.w3.org/1999/xlink" xml:space="preserve" xmlns:serif="http://www.serif.com/" style="fill-rule:evenodd;clip-rule:evenodd;stroke-linejoin:round;stroke-miterlimit:2;">
    <g transform="matrix(4.16667,0,0,4.16667,-1182.33,-1169.33)">
        <g transform="matrix(0.484586,0,0,0.484586,180.395,194.441)">
            <path d="M257.088,249.529L213.908,249.529L213.908,272.211L350,343.697L350,200.725L257.088,249.529Z" style="fill:rgb(39,163,208);fill-rule:nonzero;"/>
        </g>
        <g transform="matrix(0.484586,0,0,0.484586,180.395,194.441)">
            <path d="M486.092,249.529L442.911,249.529L350,200.725L350,343.697L486.092,272.211L486.092,249.529Z" style="fill:rgb(36,133,163);fill-rule:nonzero;"/>
        </g>
        <g transform="matrix(0.484586,0,0,0.484586,180.395,194.441)">
            <path d="M486.092,249.529L350,321.015L213.908,249.529L350,178.043L486.092,249.529Z" style="fill:rgb(47,178,227);fill-rule:nonzero;"/>
        </g>
    </g>
</svg>
