<?xml version="1.0" encoding="UTF-8" standalone="no"?>
<!DOCTYPE svg PUBLIC "-//W3C//DTD SVG 1.1//EN" "http://www.w3.org/Graphics/SVG/1.1/DTD/svg11.dtd">
<svg width="100%" height="100%" preserveAspectRatio="xMinYMin meet" viewBox="0 0 551 338" version="1.1" xmlns="http://www.w3.org/2000/svg" xmlns:xlink="http://www.w3.org/1999/xlink" xml:space="preserve" xmlns:serif="http://www.serif.com/" style="fill-rule:evenodd;clip-rule:evenodd;stroke-linejoin:round;stroke-miterlimit:2;">
    <g transform="matrix(4.16667,0,0,4.16667,-1182.33,-1288.33)">
        <g transform="matrix(0.484586,0,0,0.484586,180.395,194.441)">
            <path d="M257.088,309.674L213.908,309.674L213.908,332.356L350,403.842L350,260.87L257.088,309.674Z" style="fill:rgb(21,120,182);fill-rule:nonzero;"/>
        </g>
        <g transform="matrix(0.484586,0,0,0.484586,180.395,194.441)">
            <path d="M486.092,309.674L442.911,309.674L350,260.87L350,403.842L486.092,332.356L486.092,309.674Z" style="fill:rgb(16,104,164);fill-rule:nonzero;"/>
        </g>
        <g transform="matrix(0.484586,0,0,0.484586,180.395,194.441)">
            <path d="M486.092,309.674L350,381.16L213.908,309.674L350,238.188L486.092,309.674Z" style="fill:rgb(25,134,200);fill-rule:nonzero;"/>
        </g>
    </g>
</svg>
