<?xml version="1.0" encoding="UTF-8" standalone="no"?>
<!DOCTYPE svg PUBLIC "-//W3C//DTD SVG 1.1//EN" "http://www.w3.org/Graphics/SVG/1.1/DTD/svg11.dtd">
<svg width="100%" height="100%" viewBox="0 0 600 600" version="1.1" xmlns="http://www.w3.org/2000/svg" xmlns:xlink="http://www.w3.org/1999/xlink" xml:space="preserve" xmlns:serif="http://www.serif.com/" style="fill-rule:evenodd;clip-rule:evenodd;stroke-linejoin:round;stroke-miterlimit:2;">
    <g transform="matrix(4.16667,0,0,4.16667,-1158.33,-1158.33)">
        <g transform="matrix(0.484586,0,0,0.484586,180.395,194.441)">
            <path d="M257.088,369.819L213.908,369.819L213.908,392.501L350,463.987L350,321.015L257.088,369.819Z" style="fill:rgb(4,70,109);fill-rule:nonzero;"/>
        </g>
        <g transform="matrix(0.484586,0,0,0.484586,180.395,194.441)">
            <path d="M486.092,369.819L442.911,369.819L350,321.015L350,463.987L486.092,392.501L486.092,369.819Z" style="fill:rgb(5,56,86);fill-rule:nonzero;"/>
        </g>
        <g transform="matrix(0.484586,0,0,0.484586,180.395,194.441)">
            <path d="M486.092,369.819L350,441.306L213.908,369.819L350,298.333L486.092,369.819Z" style="fill:rgb(12,84,130);fill-rule:nonzero;"/>
        </g>
        <g transform="matrix(0.484586,0,0,0.484586,180.395,194.441)">
            <path d="M257.088,309.674L213.908,309.674L213.908,332.356L350,403.842L350,260.87L257.088,309.674Z" style="fill:rgb(21,120,182);fill-rule:nonzero;"/>
        </g>
        <g transform="matrix(0.484586,0,0,0.484586,180.395,194.441)">
            <path d="M486.092,309.674L442.911,309.674L350,260.87L350,403.842L486.092,332.356L486.092,309.674Z" style="fill:rgb(16,104,164);fill-rule:nonzero;"/>
        </g>
        <g transform="matrix(0.484586,0,0,0.484586,180.395,194.441)">
            <path d="M486.092,309.674L350,381.16L213.908,309.674L350,238.188L486.092,309.674Z" style="fill:rgb(25,134,200);fill-rule:nonzero;"/>
        </g>
        <g transform="matrix(0.484586,0,0,0.484586,180.395,194.441)">
            <path d="M257.088,249.529L213.908,249.529L213.908,272.211L350,343.697L350,200.725L257.088,249.529Z" style="fill:rgb(39,163,208);fill-rule:nonzero;"/>
        </g>
        <g transform="matrix(0.484586,0,0,0.484586,180.395,194.441)">
            <path d="M486.092,249.529L442.911,249.529L350,200.725L350,343.697L486.092,272.211L486.092,249.529Z" style="fill:rgb(36,133,163);fill-rule:nonzero;"/>
        </g>
        <g transform="matrix(0.484586,0,0,0.484586,180.395,194.441)">
            <path d="M486.092,249.529L350,321.015L213.908,249.529L350,178.043L486.092,249.529Z" style="fill:rgb(47,178,227);fill-rule:nonzero;"/>
        </g>
    </g>
</svg>
