<svg version="1.1" id="Layer_1" xmlns="http://www.w3.org/2000/svg" x="0" y="0" viewBox="0 0 48 48" style="enable-background:new 0 0 48 48" xml:space="preserve"><linearGradient id="SVGID_1_" gradientUnits="userSpaceOnUse" x1="37.672" y1="3.68" x2="37.672" y2="44.487"><stop offset="0" style="stop-color:#c391f7"/><stop offset="1" style="stop-color:#b579f4"/></linearGradient><path style="fill:url(#SVGID_1_)" d="M44 10.781v26.403a2.999 2.999 0 0 1-1.684 2.696c-2.348 1.144-6.392 3.113-7.05 3.413-.936.428-1.524.707-2.259.707s-1.221-.479-1.559-.836C31.11 42.806 34 33 34 33V6.23s-3.182-.666-2.58-1.337c.603-.671 1.107-.899 1.736-.899.725 0 1.311.323 1.971.641l7.174 3.443A2.993 2.993 0 0 1 44 10.781z"/><linearGradient id="SVGID_2_" gradientUnits="userSpaceOnUse" x1="4.598" y1="38.164" x2="37.92" y2="4.842"><stop offset=".019" style="stop-color:#742fb6"/><stop offset=".32" style="stop-color:#702db5"/><stop offset=".364" style="stop-color:#5d2596"/><stop offset=".38" style="stop-color:#5d2596"/><stop offset=".48" style="stop-color:#5d2596"/><stop offset=".485" style="stop-color:#60279a"/><stop offset=".517" style="stop-color:#6f2dab"/><stop offset=".556" style="stop-color:#7932b6"/><stop offset=".61" style="stop-color:#7e34bd"/><stop offset=".762" style="stop-color:#8035bf"/><stop offset=".806" style="stop-color:#7d34bb"/><stop offset=".851" style="stop-color:#7530ae"/><stop offset=".897" style="stop-color:#66299a"/><stop offset=".943" style="stop-color:#52207d"/><stop offset=".963" style="stop-color:#481b6e"/></linearGradient><path style="fill:url(#SVGID_2_)" d="M4 32c0 1.928.261 2.214 2.134 3.028C7.59 35.661 8.17 36 8.559 36c.469 0 .91-.323 1.327-.664S34 15.525 34 15.525V5.546c0-1.198-1.674-1.676-2.467-.778 0 0-24.791 27.531-25.533 28.244S5.767 31.119 4 32z"/><linearGradient id="SVGID_3_" gradientUnits="userSpaceOnUse" x1="4.405" y1="25.413" x2="35.886" y2="30.112"><stop offset=".002" style="stop-color:#9c55d4"/><stop offset=".003" style="stop-color:#9c55d4"/><stop offset=".337" style="stop-color:#9751d2"/><stop offset=".737" style="stop-color:#8847cb"/><stop offset=".848" style="stop-color:#8343c8"/><stop offset=".89" style="stop-color:#8042c3"/><stop offset=".938" style="stop-color:#773db6"/><stop offset=".988" style="stop-color:#68369f"/><stop offset="1" style="stop-color:#643499"/></linearGradient><path style="fill:url(#SVGID_3_)" d="M4.62 13.681c.317-.152 2.934-1.322 3.256-1.463.378-.165.514-.218.793-.218.308 0 .518.117 1.001.514L34 32.483v9.759c0 1.675-1.744 1.847-2.728.741-.698-.784-24.883-27.549-24.883-27.549S4 16.641 4 15.587c0-1.421.276-1.74.62-1.906z"/><linearGradient id="SVGID_4_" gradientUnits="userSpaceOnUse" x1="6.5" y1="34.157" x2="6.5" y2="14.799"><stop offset="0" style="stop-color:#5c1d9c"/><stop offset="1" style="stop-color:#561b90"/></linearGradient><path style="fill:url(#SVGID_4_)" d="M9 18.323v11.412s-2.73 2.999-3.34 3.659c-.542.587-1.66.403-1.66-1.246v-16.72c0-1.251 1.131-1.378 2.098-.323C6.273 15.296 9 18.323 9 18.323z"/></svg>