<svg version="1.1" baseProfile="basic" id="Layer_1" xmlns="http://www.w3.org/2000/svg" x="0" y="0" viewBox="0 0 48 48" xml:space="preserve"><path style="fill:#6a1b9a" d="M44 24c0 5.694-2.381 10.831-6.2 14.481l-.006.006A19.972 19.972 0 0 1 24 44C12.956 44 4 35.044 4 24a19.913 19.913 0 0 1 5.5-13.775c.006-.013.013-.019.019-.025C13.169 6.381 18.306 4 24 4c11.044 0 20 8.956 20 20z"/><path style="fill:#7b1fa2" d="M38.375 37.862c-.187.213-.381.419-.575.619l-.006.006A19.972 19.972 0 0 1 24 44C12.956 44 4 35.044 4 24a19.913 19.913 0 0 1 5.5-13.775c.006-.013.013-.019.019-.025.2-.194.406-.387.619-.575l28.237 28.237z"/><path style="fill:#fff" d="M8.626 27.281a.841.841 0 0 1-.625-.262.862.862 0 0 1-.256-.625.877.877 0 0 1 .256-.625.837.837 0 0 1 .625-.269.854.854 0 0 1 .625.269c.169.164.263.39.262.625a.858.858 0 0 1-.262.625.862.862 0 0 1-.625.262zM21.044 27.125h-1.638l-5.856-9.087a3.82 3.82 0 0 1-.363-.712h-.05c.056.519.077 1.041.062 1.562v8.237h-1.331V15.731h1.731l5.7 8.925c.237.371.392.625.462.763h.031a12.017 12.017 0 0 1-.081-1.675v-8.012h1.331v11.393zM30.057 27.125h-6.056V15.731h5.775v1.206h-4.412v3.788h4.113v1.2h-4.113v3.95h4.7l-.007 1.25zM39.001 16.938h-3.312v10.188h-1.331V16.938h-3.275v-1.206h7.919v1.206z"/><path style="fill:#f2f2f2" d="M20.326 34.875a3.068 3.068 0 0 1-1.45.306 2.34 2.34 0 0 1-1.794-.719 2.664 2.664 0 0 1-.675-1.875 2.79 2.79 0 0 1 .756-2.038 2.576 2.576 0 0 1 1.925-.775c.427-.015.853.06 1.25.219v.625a2.493 2.493 0 0 0-1.25-.312 1.914 1.914 0 0 0-1.469.625 2.268 2.268 0 0 0-.562 1.612 2.169 2.169 0 0 0 .525 1.531c.355.382.86.59 1.381.569.48.013.954-.109 1.369-.35l-.006.582zM22.882 35.181a1.74 1.74 0 0 1-1.331-.556 1.944 1.944 0 0 1-.494-1.394 2.02 2.02 0 0 1 .519-1.475 1.873 1.873 0 0 1 1.394-.531 1.68 1.68 0 0 1 1.306.519c.332.4.5.912.469 1.431a2.019 2.019 0 0 1-.506 1.438 1.777 1.777 0 0 1-1.357.568zm.044-3.419a1.14 1.14 0 0 0-.912.394c-.24.31-.36.696-.338 1.088-.022.38.098.754.338 1.05.231.26.566.402.912.388.34.02.67-.118.894-.375.227-.31.338-.691.312-1.075a1.663 1.663 0 0 0-.312-1.081 1.096 1.096 0 0 0-.894-.389zM27.663 31.95a.742.742 0 0 0-.456-.119.766.766 0 0 0-.625.363c-.186.295-.276.64-.256.988v1.912h-.625v-3.75h.625v.781c.069-.242.205-.459.394-.625a.899.899 0 0 1 .587-.219.997.997 0 0 1 .356.05v.619zM31.326 33.375h-2.644a1.4 1.4 0 0 0 .319.963c.234.234.557.356.887.338a1.876 1.876 0 0 0 1.163-.419v.562c-.386.255-.844.38-1.306.356a1.586 1.586 0 0 1-1.25-.513 2.094 2.094 0 0 1-.456-1.438c-.022-.52.154-1.03.494-1.425a1.591 1.591 0 0 1 1.25-.55c.432-.024.851.151 1.138.475.288.379.43.85.4 1.325l.005.326zm-.625-.506a1.247 1.247 0 0 0-.25-.806.856.856 0 0 0-.688-.288.972.972 0 0 0-.719.306 1.383 1.383 0 0 0-.369.794l2.026-.006z"/></svg>